<svg width="512" height="512" viewBox="0 0 512 512" fill="none" xmlns="http://www.w3.org/2000/svg" role="img" aria-labelledby="title desc">
  <title id="title">Phishexa mark</title>
  <desc id="desc">Standalone Phishexa context signal mark.</desc>
  <defs>
    <linearGradient id="markGradient" x1="72" y1="62" x2="438" y2="454" gradientUnits="userSpaceOnUse">
      <stop offset="0" stop-color="#13C8B5"/>
      <stop offset="0.5" stop-color="#8B6FE8"/>
      <stop offset="1" stop-color="#D9FF3F"/>
    </linearGradient>
    <linearGradient id="scanGradient" x1="122" y1="256" x2="390" y2="256" gradientUnits="userSpaceOnUse">
      <stop offset="0" stop-color="#D9FF3F"/>
      <stop offset="1" stop-color="#13C8B5"/>
    </linearGradient>
    <filter id="softShadow" x="0" y="0" width="512" height="512" filterUnits="userSpaceOnUse" color-interpolation-filters="sRGB">
      <feDropShadow dx="0" dy="24" stdDeviation="28" flood-color="#074C5B" flood-opacity="0.2"/>
    </filter>
  </defs>
  <rect width="512" height="512" rx="112" fill="#FFF8EF"/>
  <g filter="url(#softShadow)">
    <rect x="64" y="64" width="384" height="384" rx="96" fill="#070A12"/>
    <path d="M256 104L384.2 178V326L256 400L127.8 326V178L256 104Z" stroke="url(#markGradient)" stroke-width="20" stroke-linejoin="round"/>
    <path d="M171 221H286C319.689 221 347 248.311 347 282V282" stroke="#EDE7FF" stroke-width="22" stroke-linecap="round"/>
    <path d="M341 291H226C192.311 291 165 263.689 165 230V230" stroke="#EDE7FF" stroke-width="22" stroke-linecap="round"/>
    <path d="M123 256H389" stroke="url(#scanGradient)" stroke-width="13" stroke-linecap="round" stroke-dasharray="8 30"/>
    <circle cx="256" cy="104" r="22" fill="#D9FF3F"/>
    <circle cx="384" cy="178" r="17" fill="#13C8B5"/>
    <circle cx="384" cy="326" r="17" fill="#8B6FE8"/>
    <circle cx="256" cy="400" r="22" fill="#13C8B5"/>
    <circle cx="128" cy="326" r="17" fill="#D9FF3F"/>
    <circle cx="128" cy="178" r="17" fill="#8B6FE8"/>
    <rect x="204" y="196" width="104" height="124" rx="24" fill="#FFF8EF"/>
    <path d="M206 218L256 258L306 218" stroke="#074C5B" stroke-width="14" stroke-linecap="round" stroke-linejoin="round"/>
    <path d="M228 300H284" stroke="#074C5B" stroke-width="14" stroke-linecap="round"/>
  </g>
</svg>
